<svg xmlns="http://www.w3.org/2000/svg" xmlns:xlink="http://www.w3.org/1999/xlink" width="500" zoomAndPan="magnify" viewBox="0 0 375 374.999991" height="500" preserveAspectRatio="xMidYMid meet" version="1.0"><defs><clipPath id="e3f038536d"><path d="M 187.5 0 C 83.945312 0 0 83.945312 0 187.5 C 0 291.054688 83.945312 375 187.5 375 C 291.054688 375 375 291.054688 375 187.5 C 375 83.945312 291.054688 0 187.5 0 Z M 187.5 0 " clip-rule="nonzero"/></clipPath><clipPath id="3155820d3b"><path d="M 37.5 37.957031 L 337.042969 37.957031 L 337.042969 337.5 L 37.5 337.5 Z M 37.5 37.957031 " clip-rule="nonzero"/></clipPath><clipPath id="1f0c2ba537"><path d="M 187.269531 37.957031 C 104.554688 37.957031 37.5 105.011719 37.5 187.730469 C 37.5 270.445312 104.554688 337.5 187.269531 337.5 C 269.988281 337.5 337.042969 270.445312 337.042969 187.730469 C 337.042969 105.011719 269.988281 37.957031 187.269531 37.957031 Z M 187.269531 37.957031 " clip-rule="nonzero"/></clipPath><clipPath id="6b1ac547c9"><path d="M 37 37 L 294 37 L 294 294 L 37 294 Z M 37 37 " clip-rule="nonzero"/></clipPath><clipPath id="1c74726d62"><path d="M -24.648438 187.253906 L 187.484375 -24.875 L 293.550781 81.191406 L 81.417969 293.320312 Z M -24.648438 187.253906 " clip-rule="nonzero"/></clipPath><clipPath id="a25c774989"><path d="M -24.648438 187.253906 L 187.484375 -24.875 L 293.550781 81.191406 L 81.417969 293.320312 Z M -24.648438 187.253906 " clip-rule="nonzero"/></clipPath><clipPath id="3ce947b085"><path d="M 114.359375 112.730469 L 264.359375 112.730469 L 264.359375 262.730469 L 114.359375 262.730469 Z M 114.359375 112.730469 " clip-rule="nonzero"/></clipPath><clipPath id="2a24e81e4b"><path d="M 189.359375 112.730469 C 147.9375 112.730469 114.359375 146.308594 114.359375 187.730469 C 114.359375 229.148438 147.9375 262.730469 189.359375 262.730469 C 230.78125 262.730469 264.359375 229.148438 264.359375 187.730469 C 264.359375 146.308594 230.78125 112.730469 189.359375 112.730469 Z M 189.359375 112.730469 " clip-rule="nonzero"/></clipPath><clipPath id="f292aabfcd"><path d="M 150.078125 150.078125 L 225.382812 150.078125 L 225.382812 225.382812 L 150.078125 225.382812 Z M 150.078125 150.078125 " clip-rule="nonzero"/></clipPath><clipPath id="be543b0436"><path d="M 187.730469 150.078125 C 166.933594 150.078125 150.078125 166.933594 150.078125 187.730469 C 150.078125 208.523438 166.933594 225.382812 187.730469 225.382812 C 208.523438 225.382812 225.382812 208.523438 225.382812 187.730469 C 225.382812 166.933594 208.523438 150.078125 187.730469 150.078125 Z M 187.730469 150.078125 " clip-rule="nonzero"/></clipPath></defs><g clip-path="url(#e3f038536d)"><rect x="-37.5" width="450" fill="#000000" y="-37.499999" height="449.999989" fill-opacity="1"/></g><g clip-path="url(#3155820d3b)"><g clip-path="url(#1f0c2ba537)"><path fill="#ffffff" d="M 37.5 37.957031 L 337.042969 37.957031 L 337.042969 337.5 L 37.5 337.5 Z M 37.5 37.957031 " fill-opacity="1" fill-rule="nonzero"/></g></g><g clip-path="url(#6b1ac547c9)"><g clip-path="url(#1c74726d62)"><g clip-path="url(#a25c774989)"><path fill="#ff3131" d="M 81.417969 293.320312 L 293.550781 81.191406 C 234.972656 22.609375 139.996094 22.609375 81.417969 81.1875 C 22.839844 139.769531 22.839844 234.742188 81.417969 293.320312 Z M 81.417969 293.320312 " fill-opacity="1" fill-rule="nonzero"/></g></g></g><path stroke-linecap="butt" transform="matrix(0.53033, -0.53033, 0.53033, 0.53033, 57.23977, 289.688009)" fill="none" stroke-linejoin="miter" d="M -0.00092406 24.997289 L 448.24956 25.000972 " stroke="#000000" stroke-width="50" stroke-opacity="1" stroke-miterlimit="4"/><g clip-path="url(#3ce947b085)"><g clip-path="url(#2a24e81e4b)"><path fill="#000000" d="M 114.359375 112.730469 L 264.359375 112.730469 L 264.359375 262.730469 L 114.359375 262.730469 Z M 114.359375 112.730469 " fill-opacity="1" fill-rule="nonzero"/></g></g><g clip-path="url(#f292aabfcd)"><g clip-path="url(#be543b0436)"><path fill="#ffffff" d="M 150.078125 150.078125 L 225.382812 150.078125 L 225.382812 225.382812 L 150.078125 225.382812 Z M 150.078125 150.078125 " fill-opacity="1" fill-rule="nonzero"/></g></g></svg>